<?xml version="1.0" encoding="utf-8"?>
<!-- Generator: Adobe Illustrator 24.1.2, SVG Export Plug-In . SVG Version: 6.00 Build 0)  -->
<svg version="1.1" id="Layer_1" xmlns="http://www.w3.org/2000/svg" xmlns:xlink="http://www.w3.org/1999/xlink" x="0px" y="0px"
	 viewBox="0 0 1190.6 104.8" style="enable-background:new 0 0 1190.6 104.8;" xml:space="preserve">
<style type="text/css">
	.st0{fill:#010201;}
	.st1{fill:#F5F5F5;}
</style>
<g>
	<rect x="-8" class="st0" width="1215" height="105"/>
</g>
<g>
	<path class="st1" d="M499,49.3c0-12,8.7-20.7,20.3-20.7c8.1,0,13.9,4,17,9l-5.6,4.3c-2.4-3.8-6.4-6.2-11.4-6.2
		c-7.3,0-12.9,5.7-12.9,13.6c0,8,5.6,13.6,12.9,13.6c5,0,8.9-2.3,11.4-6.2l5.6,4.3c-3.2,5-9,9-17,9C507.8,70.1,499,61.3,499,49.3z"
		/>
	<path class="st1" d="M542.7,69.2V29.5h7.4v32.7h18.2v7.1H542.7z"/>
	<path class="st1" d="M571.1,49.3c0-11.6,8.8-20.7,20.4-20.7c11.5,0,20.4,9.1,20.4,20.7s-8.9,20.7-20.4,20.7
		C579.9,70.1,571.1,60.9,571.1,49.3z M604.5,49.3c0-7.8-5.5-13.6-13-13.6c-7.4,0-12.9,5.8-12.9,13.6S584.1,63,591.5,63
		C599,63,604.5,57.2,604.5,49.3z"/>
	<path class="st1" d="M615.9,65.5l3.7-6c2.9,2.2,6.6,3.6,10.1,3.6c4.8,0,7-2,7-4.8c0-3.5-4.1-4.4-8.5-5.7
		c-5.6-1.5-11.9-4.3-11.9-12.4c0-6.6,5.6-11.5,14-11.5c5.2,0,9.7,1.5,12.9,3.9l-3.7,6c-3.1-2-6.1-2.9-9.1-2.9c-4,0-6.4,2.2-6.4,4.6
		c0,3.4,3.9,4.5,8.4,5.8c6.8,2,12.1,4.7,12.1,12.3c0,7-5.6,11.8-14.6,11.8C623.7,70.1,619.1,68,615.9,65.5z"/>
	<path class="st1" d="M650.8,69.2V29.5H677v7.1h-18.7v9.3h16.6v6.6h-16.6v9.7H677v7.1H650.8z"/>
</g>
</svg>
