<?xml version="1.0" encoding="utf-8"?>
<!-- Generator: Adobe Illustrator 24.1.2, SVG Export Plug-In . SVG Version: 6.00 Build 0)  -->
<svg version="1.1" id="Layer_1" xmlns="http://www.w3.org/2000/svg" xmlns:xlink="http://www.w3.org/1999/xlink" x="0px" y="0px"
	 viewBox="0 0 1190.6 263.8" style="enable-background:new 0 0 1190.6 263.8;" xml:space="preserve">
<style type="text/css">
	.st0{opacity:0.57;fill:#F5F5F5;}
	.st1{fill:#010201;}
</style>
<circle class="st0" cx="584" cy="132" r="126"/>
<g>
	<g>
		<path class="st1" d="M495,132.3c0-12,8.7-20.7,20.3-20.7c8.1,0,13.9,4,17,9l-5.6,4.3c-2.4-3.8-6.4-6.2-11.4-6.2
			c-7.3,0-12.9,5.7-12.9,13.6c0,8,5.6,13.6,12.9,13.6c5,0,8.9-2.3,11.4-6.2l5.6,4.3c-3.2,5-9,9-17,9
			C503.8,153.1,495,144.3,495,132.3z"/>
	</g>
	<g>
		<path class="st1" d="M538.7,152.2v-39.8h7.4v32.7h18.2v7.1H538.7z"/>
	</g>
	<g>
		<path class="st1" d="M567.1,132.3c0-11.6,8.8-20.7,20.4-20.7c11.5,0,20.4,9.1,20.4,20.7s-8.9,20.7-20.4,20.7
			C575.9,153.1,567.1,143.9,567.1,132.3z M600.5,132.3c0-7.8-5.5-13.6-13-13.6c-7.4,0-12.9,5.8-12.9,13.6s5.5,13.6,12.9,13.6
			C595,146,600.5,140.2,600.5,132.3z"/>
	</g>
	<g>
		<path class="st1" d="M611.9,148.5l3.7-6c2.9,2.2,6.6,3.6,10.1,3.6c4.8,0,7-2,7-4.8c0-3.5-4.1-4.4-8.5-5.7
			c-5.6-1.5-11.9-4.3-11.9-12.4c0-6.6,5.6-11.5,14-11.5c5.2,0,9.7,1.5,12.9,3.9l-3.7,6c-3.1-2-6.1-2.9-9.1-2.9c-4,0-6.4,2.2-6.4,4.6
			c0,3.4,3.9,4.5,8.4,5.8c6.8,2,12.1,4.7,12.1,12.3c0,7-5.6,11.8-14.6,11.8C619.7,153.1,615.1,151,611.9,148.5z"/>
	</g>
	<g>
		<path class="st1" d="M646.8,152.2v-39.8H673v7.1h-18.7v9.3h16.6v6.6h-16.6v9.7H673v7.1H646.8z"/>
	</g>
</g>
</svg>
